<svg xmlns="http://www.w3.org/2000/svg" width="100" height="100" viewBox="0 0 100 100">
  <g id="icon_reason_5" transform="translate(-910 -1624)">
    <rect id="Rectangle_763" data-name="Rectangle 763" width="100" height="100" transform="translate(910 1624)" fill="none"/>
    <g id="Group_1727" data-name="Group 1727" transform="translate(11025 18998)">
      <g id="Rectangle_719" data-name="Rectangle 719" transform="translate(-10102 -17374)" fill="none" stroke="#707070" stroke-width="4">
        <rect width="75" height="100" rx="5" stroke="none"/>
        <rect x="2" y="2" width="71" height="96" rx="3" fill="none"/>
      </g>
      <g id="Rectangle_720" data-name="Rectangle 720" transform="translate(-10077 -17304)" fill="none" stroke="#707070" stroke-width="4">
        <path d="M2,0H23a2,2,0,0,1,2,2V30a0,0,0,0,1,0,0H0a0,0,0,0,1,0,0V2A2,2,0,0,1,2,0Z" stroke="none"/>
        <path d="M2,2H23a0,0,0,0,1,0,0V26a2,2,0,0,1-2,2H4a2,2,0,0,1-2-2V2A0,0,0,0,1,2,2Z" fill="none"/>
      </g>
      <g id="Group_1726" data-name="Group 1726" transform="translate(-3)">
        <g id="Rectangle_721" data-name="Rectangle 721" transform="translate(-10085 -17358)" fill="none" stroke="#707070" stroke-width="4">
          <rect width="20" height="20" rx="5" stroke="none"/>
          <rect x="2" y="2" width="16" height="16" rx="3" fill="none"/>
        </g>
        <g id="Rectangle_722" data-name="Rectangle 722" transform="translate(-10057 -17358)" fill="none" stroke="#707070" stroke-width="4">
          <rect width="20" height="20" rx="5" stroke="none"/>
          <rect x="2" y="2" width="16" height="16" rx="3" fill="none"/>
        </g>
        <g id="Rectangle_721-2" data-name="Rectangle 721" transform="translate(-10085 -17333)" fill="none" stroke="#707070" stroke-width="4">
          <rect width="20" height="20" rx="5" stroke="none"/>
          <rect x="2" y="2" width="16" height="16" rx="3" fill="none"/>
        </g>
        <g id="Rectangle_722-2" data-name="Rectangle 722" transform="translate(-10057 -17333)" fill="none" stroke="#707070" stroke-width="4">
          <rect width="20" height="20" rx="5" stroke="none"/>
          <rect x="2" y="2" width="16" height="16" rx="3" fill="none"/>
        </g>
      </g>
      <g id="Ellipse_150" data-name="Ellipse 150" transform="translate(-10064 -17294)" fill="none" stroke="#707070" stroke-width="4">
        <circle cx="2.5" cy="2.5" r="2.5" stroke="none"/>
        <circle cx="2.5" cy="2.5" r="0.5" fill="none"/>
      </g>
    </g>
  </g>
</svg>
