<?xml version="1.0" encoding="utf-8"?>
<!-- Generator: Adobe Illustrator 26.2.1, SVG Export Plug-In . SVG Version: 6.00 Build 0)  -->
<svg version="1.1" id="圖層_1" xmlns="http://www.w3.org/2000/svg" xmlns:xlink="http://www.w3.org/1999/xlink" x="0px" y="0px"
	 viewBox="0 0 84.1 83.8" style="enable-background:new 0 0 84.1 83.8;" xml:space="preserve">
<style type="text/css">
	.st0{fill:none;stroke:#7A7A7A;stroke-width:3;stroke-linecap:round;stroke-linejoin:round;}
</style>
<g id="圖層_2_00000134933541882354621580000013247141529238330258_">
	<g id="图层_2">
		<g id="图层_141">
			<path class="st0" d="M34.4,4.7L21.5,2.4c-0.9-0.2-1.9-0.3-2.8-0.2l0,0C13,2.1,7.7,5.1,4.7,10c-2.2,4-3.3,8.5-3.2,13.1l0,0
				c0,4.8,1.3,9.6,3.7,13.8l3.7,6.4c1.8,3,2.9,6.4,3.2,9.9c0.7,8.1,3.2,16,7.2,23l2.5,4.2c0.6,1.1,1.8,1.7,3,1.8l0,0
				c1.9,0,3.5-1.6,3.5-3.5v-7.1c0-3.2,0.5-6.3,1.6-9.3l1-2.8c0.5-1.5,1.9-2.5,3.5-2.5l0,0c1.6,0,3,1,3.5,2.5l1,2.6
				c1.2,3.2,1.8,6.6,1.8,10v6.7c0,1.9,1.6,3.5,3.5,3.5l0,0c1.2,0,2.4-0.7,3-1.8l2.4-4.2c1.5-2.6,2.7-5.2,3.8-8"/>
		</g>
		<g id="图层_140">
			<path class="st0" d="M34.4,4.7l12.8-2.3c0.9-0.2,1.9-0.3,2.8-0.2l0,0c1.3,0,2.6,0.1,3.8,0.5"/>
		</g>
		<g id="图层_139">
			<path class="st0" d="M31.3,12.2l-7.8-1.7c-3.4-0.8-7,0.4-9.3,3c-0.2,0.2-0.3,0.4-0.5,0.6c-1.3,1.8-2,4.1-1.9,6.3"/>
		</g>
		<g id="图层_138">
			<path class="st0" d="M61.4,1.5c-4.1,5.7-21.3,30.6-21.3,41.1c-0.3,11.7,9.1,21.5,20.8,21.7s21.5-9.1,21.7-20.8c0-0.3,0-0.6,0-0.9
				C82.6,32.1,65.4,7.2,61.4,1.5z M73.3,44.3h-9v8.8h-5.8v-8.8h-9v-5.8h9v-9.2h5.8v9.2h9L73.3,44.3z"/>
		</g>
		<g id="图层_137">
			<polygon class="st0" points="73.3,38.5 73.3,44.3 64.3,44.3 64.3,53.1 58.5,53.1 58.5,44.3 49.4,44.3 49.4,38.5 58.5,38.5 
				58.5,29.2 64.3,29.2 64.3,38.5 			"/>
		</g>
		<g id="图层_136">
			<polygon class="st0" points="73.3,38.5 73.3,44.3 64.3,44.3 64.3,53.1 58.5,53.1 58.5,44.3 49.4,44.3 49.4,38.5 58.5,38.5 
				58.5,29.2 64.3,29.2 64.3,38.5 			"/>
		</g>
	</g>
</g>
</svg>
