<?xml version="1.0" encoding="utf-8"?>
<!-- Generator: Adobe Illustrator 26.2.1, SVG Export Plug-In . SVG Version: 6.00 Build 0)  -->
<svg version="1.1" id="圖層_1" xmlns="http://www.w3.org/2000/svg" xmlns:xlink="http://www.w3.org/1999/xlink" x="0px" y="0px"
	 viewBox="0 0 93.4 100.1" style="enable-background:new 0 0 93.4 100.1;" xml:space="preserve">
<style type="text/css">
	.st0{fill:none;stroke:#7A7A7A;stroke-width:3;stroke-linecap:round;stroke-linejoin:round;}
</style>
<g id="圖層_2_00000145058766011407324290000016067562194838155413_">
	<g id="图层_2">
		<g id="图层_54">
			<path class="st0" d="M9.3,46.9l3.9-2.5c2.6-1.7,2.8-3.2,2.8-3.6c0.1-2.1-2.6-7.7-5.9-10.8c-1.4-1.3-3.5-1.6-5.2-0.6l-1.3,0.8
				c-2,1.2-2.7,3.9-1.4,5.9c0,0,0,0,0,0.1l1.3,2l22.2,32.8c0.8,1.2,1.8,2.2,3.1,3l0,0c2.3,1.4,5,1.9,7.6,1.4l31.7-6.2l18.4,6.4
				c2.1,0.7,4.5-0.4,5.2-2.5c0,0,0-0.1,0-0.1l0,0c0.7-2.1-0.4-4.3-2.5-5.1l-21.9-8l-35.6,5.8"/>
		</g>
		<g id="图层_53">
			<path class="st0" d="M15.5,42.3c0.9,0.6,20.3,13.1,17.6,21.3c-0.3,0.8-0.7,1.5-1.3,2.1l-2.6,2.6"/>
		</g>
		<g id="图层_52">
			<path class="st0" d="M30.1,74.8l8.1,12.3H26.5c-4.3,0-7.8,3.5-7.8,7.8v3.7h59.1"/>
		</g>
		<g id="图层_51">
			<path class="st0" d="M50.4,72.7l10.3,14.2h19.8c4.3,0,7.8,3.5,7.8,7.8c0,0,0,0,0,0l0,0"/>
		</g>
		<g id="图层_50">
			<polyline class="st0" points="31.6,57 38.9,52.8 63.8,52.8 			"/>
		</g>
		<g id="图层_49">
			<line class="st0" x1="38.2" y1="87.1" x2="50.4" y2="87.1"/>
		</g>
		<g id="图层_48">
			<path class="st0" d="M62.8,35.2L30.7,7.8l2-2.3c3.6-4.2,9.9-4.7,14.1-1.1l16.9,14.4c4.2,3.6,4.7,9.9,1.1,14.1c0,0,0,0,0,0
				L62.8,35.2z"/>
		</g>
		<g id="图层_47">
			<polyline class="st0" points="51.6,8.5 57.6,1.5 77.8,1.5 			"/>
		</g>
		<g id="图层_46">
			<polyline class="st0" points="57.1,12.6 61.5,7.5 71.7,7.7 			"/>
		</g>
		<g id="图层_45">
			<line class="st0" x1="42.7" y1="26.2" x2="40.2" y2="29.2"/>
		</g>
		<g id="图层_44">
			<line class="st0" x1="37.1" y1="20" x2="31" y2="20.7"/>
		</g>
		<g id="图层_43">
			<line class="st0" x1="50" y1="31.7" x2="50.2" y2="37.1"/>
		</g>
	</g>
</g>
</svg>
