<svg xmlns="http://www.w3.org/2000/svg" xmlns:xlink="http://www.w3.org/1999/xlink" width="11.913" height="17.096" viewBox="0 0 11.913 17.096">
  <defs>
    <clipPath id="clip-path">
      <rect id="Rectangle_677" data-name="Rectangle 677" width="11.913" height="17.096" fill="none"/>
    </clipPath>
  </defs>
  <g id="Group_1567" data-name="Group 1567" transform="translate(0 0)">
    <g id="Group_1565" data-name="Group 1565" transform="translate(0 0)" clip-path="url(#clip-path)">
      <path id="Path_1654" data-name="Path 1654" d="M18.007,11.346v1.241c-.027,0-.018.027-.019.042a6.669,6.669,0,0,1-.237,1.265,7.369,7.369,0,0,1-.921,1.959c-.373.577-.8,1.117-1.225,1.654-.479.6-.961,1.2-1.4,1.832a12.374,12.374,0,0,0-.867,1.376,9.15,9.15,0,0,0-.6,1.52,2.952,2.952,0,0,1-.2.518.507.507,0,0,1-.3.27c-.008,0-.021,0-.014.019h-.318c.007-.011,0-.015-.009-.017a.538.538,0,0,1-.326-.319,4.343,4.343,0,0,1-.219-.611,8.039,8.039,0,0,0-.938-2.028c-.315-.484-.641-.96-.99-1.42-.011-.014-.019-.03-.03-.045l1.141-1.354,1.667-1.981L13.6,13.611c.008-.009.02-.018.018-.033v0c.008,0,.011,0,.011-.011h0a.01.01,0,0,0,.011-.011h0l.011-.011h0l.011-.008a.327.327,0,0,1,.021-.027,3.42,3.42,0,0,0,.283-.342c.007,0,.013,0,.014-.011h0c.01,0,.015-.009.011-.021h0c.018.006.023-.009.03-.019l.741-.88,1.031-1.225q.49-.582.981-1.164c.192-.229.386-.456.58-.685l.011.016a5.989,5.989,0,0,1,.63,2.118c0,.015-.007.037.019.042" transform="translate(-6.094 -5.945)" fill="#34a753"/>
      <path id="Path_1655" data-name="Path 1655" d="M8.263,0h.526l0,0,0,0a.061.061,0,0,0,.043.009A5.736,5.736,0,0,1,9.719.13a4.679,4.679,0,0,1,.62.164.565.565,0,0,1-.1.124C10.124.56,10,.7,9.883.841l-.4.477c-.156.184-.313.367-.468.551l-.469.556-.364.43q-.2.235-.4.469l-.359.422-.419.5a.068.068,0,0,0-.024.052l-.017.016c-.007,0-.015,0-.013.011-.059.06-.114.124-.179.179-.1-.082-.192-.165-.289-.246-.066-.055-.133-.11-.2-.167C6.193,4,6.092,3.925,6,3.843S5.818,3.7,5.732,3.62s-.192-.159-.288-.239-.18-.154-.27-.231l-.292-.242c-.069-.058-.137-.114-.2-.173-.094-.083-.192-.16-.288-.239-.075-.062-.15-.123-.224-.186s-.13-.113-.194-.169c.01-.013.019-.026.03-.039A5.961,5.961,0,0,1,5.808.668a5.864,5.864,0,0,1,1.874-.6c.18-.025.361-.044.543-.052.013,0,.034.009.037-.017" transform="translate(-2.574 0)" fill="#1a72e7"/>
      <path id="Path_1656" data-name="Path 1656" d="M1.4,6.085c.065.057.128.114.194.169s.15.124.224.186c.1.079.194.157.288.239.067.059.136.116.2.173L2.6,7.1c.091.076.18.155.27.231s.2.156.288.239.175.149.264.223.2.159.292.243c.065.057.131.111.2.167.1.081.193.164.289.246l-.143.2a.019.019,0,0,0-.015.02h0a.01.01,0,0,0-.011.011h0c-.024,0-.031.023-.043.037L3.069,9.8l-.957,1.139L1.03,12.227l-.436.515a2.634,2.634,0,0,1-.157-.36,6.062,6.062,0,0,1-.263-.849c-.038-.167-.069-.337-.1-.506s-.037-.317-.058-.475c0-.031,0-.063,0-.094,0-.012.007-.032-.019-.029V9.495c.028-.008.017-.032.018-.048a5.356,5.356,0,0,1,.075-.585A5.946,5.946,0,0,1,1,6.607,4.685,4.685,0,0,1,1.4,6.085" transform="translate(0.001 -3.945)" fill="#e94335"/>
      <path id="Path_1657" data-name="Path 1657" d="M1.691,17.509l.436-.515,1.082-1.287.957-1.139q.459-.547.92-1.093c.012-.014.02-.036.043-.037-.005.012-.01.024-.016.035A2.284,2.284,0,0,0,8.59,16.364c.009-.008.014-.023.031-.02s-.009.024-.018.034q-.7.828-1.393,1.654L5.543,20.014,4.4,21.368c-.1-.11-.182-.23-.273-.345-.414-.526-.839-1.044-1.243-1.578a10.944,10.944,0,0,1-1.062-1.653c-.047-.093-.095-.185-.133-.282" transform="translate(-1.096 -8.713)" fill="#fabb04"/>
      <path id="Path_1658" data-name="Path 1658" d="M15.891.835a4.285,4.285,0,0,1,.575.212,5.914,5.914,0,0,1,2.9,2.682c.006.012.011.024.017.036q-.29.342-.58.685l-.981,1.164L16.788,6.84l-.741.88c-.007.009-.013.025-.03.019.006-.012.011-.024.017-.035A2.249,2.249,0,0,0,16.3,5.95,2.288,2.288,0,0,0,13.14,4.435a2.551,2.551,0,0,0-.606.4.066.066,0,0,1,.024-.052l.419-.5c.12-.141.24-.281.359-.422s.264-.312.4-.469l.365-.43.469-.556.468-.551.4-.477c.119-.141.24-.281.359-.423a.586.586,0,0,0,.1-.124" transform="translate(-8.125 -0.541)" fill="#4284f3"/>
      <path id="Path_1659" data-name="Path 1659" d="M22.408,20.485a.015.015,0,0,1,.011-.021c0,.012,0,.017-.011.021" transform="translate(-14.527 -13.267)" fill="#4284f3"/>
      <path id="Path_1660" data-name="Path 1660" d="M22.373,20.531c0-.006.005-.013.014-.011s-.007.009-.014.011" transform="translate(-14.505 -13.303)" fill="#4284f3"/>
      <path id="Path_1661" data-name="Path 1661" d="M21.477,21.61c0-.012.006-.007.01-.008Z" transform="translate(-13.923 -14.004)" fill="#fabb04"/>
      <path id="Path_1662" data-name="Path 1662" d="M21.45,21.631c0-.01,0-.014.011-.011l-.011.011" transform="translate(-13.905 -14.016)" fill="#fabb04"/>
      <path id="Path_1663" data-name="Path 1663" d="M21.42,21.658c0-.01,0-.014.011-.011s0,.011-.011.011" transform="translate(-13.886 -14.034)" fill="#fabb04"/>
      <path id="Path_1664" data-name="Path 1664" d="M21.391,21.687c0-.011,0-.013.011-.011s0,.012-.011.011" transform="translate(-13.868 -14.052)" fill="#fabb04"/>
      <path id="Path_1665" data-name="Path 1665" d="M12.461,12.252l-.012.011c0-.011.006-.01.012-.011" transform="translate(-8.07 -7.943)" fill="#4284f3"/>
      <path id="Path_1666" data-name="Path 1666" d="M11.5,13.352l-.015.021a.02.02,0,0,1,.015-.021" transform="translate(-7.448 -8.656)" fill="#fabb04"/>
      <path id="Path_1667" data-name="Path 1667" d="M11.472,13.409c0,.006,0,.011-.01.011s0-.011.01-.011" transform="translate(-7.431 -8.693)" fill="#fabb04"/>
    </g>
  </g>
</svg>
