<svg xmlns="http://www.w3.org/2000/svg" xmlns:xlink="http://www.w3.org/1999/xlink" width="22.884" height="23" viewBox="0 0 22.884 23">
  <defs>
    <clipPath id="clip-path">
      <rect id="Rectangle_360" data-name="Rectangle 360" width="22.884" height="23" transform="translate(0)" fill="#fff"/>
    </clipPath>
  </defs>
  <g id="icon_phone_call" transform="translate(-0.001)">
    <g id="Group_781" data-name="Group 781" transform="translate(0.001)" clip-path="url(#clip-path)">
      <path id="Path_1378" data-name="Path 1378" d="M18.072,35.656a2.252,2.252,0,0,0-1.633-.749,2.327,2.327,0,0,0-1.652.744l-1.527,1.522c-.126-.068-.251-.13-.372-.193-.174-.087-.338-.169-.478-.256A16.592,16.592,0,0,1,8.435,33.1a9.792,9.792,0,0,1-1.3-2.058c.4-.362.763-.739,1.121-1.1.135-.135.271-.275.406-.411a2.217,2.217,0,0,0,0-3.343L7.338,24.869c-.15-.15-.3-.3-.449-.459-.29-.3-.594-.609-.908-.9a2.287,2.287,0,0,0-1.618-.71,2.366,2.366,0,0,0-1.642.71l-.01.01L1.068,25.178A3.535,3.535,0,0,0,.019,27.424a8.469,8.469,0,0,0,.618,3.584,20.8,20.8,0,0,0,3.7,6.164A22.734,22.734,0,0,0,11.9,43.1a11.793,11.793,0,0,0,4.251,1.256c.1,0,.208.01.3.01a3.639,3.639,0,0,0,2.787-1.2c0-.01.014-.014.019-.024a10.939,10.939,0,0,1,.845-.874c.208-.2.42-.406.628-.623a2.409,2.409,0,0,0,.729-1.671,2.322,2.322,0,0,0-.744-1.657Zm1.73,5.087s0,0,0,0c-.188.2-.382.387-.589.589a12.69,12.69,0,0,0-.932.966,2.329,2.329,0,0,1-1.817.768c-.072,0-.15,0-.222,0a10.479,10.479,0,0,1-3.768-1.13,21.461,21.461,0,0,1-7.131-5.585,19.615,19.615,0,0,1-3.478-5.792,6.9,6.9,0,0,1-.541-3.024A2.217,2.217,0,0,1,1.99,26.1l1.647-1.647a1.1,1.1,0,0,1,.734-.343,1.034,1.034,0,0,1,.705.338l.014.014c.295.275.575.56.87.865.15.155.3.309.459.469L7.739,27.11a.922.922,0,0,1,0,1.5c-.14.14-.275.28-.415.415-.406.415-.792.8-1.212,1.179-.01.01-.019.015-.024.024a.986.986,0,0,0-.251,1.1l.015.044a10.589,10.589,0,0,0,1.56,2.546l0,0a17.732,17.732,0,0,0,4.29,3.9,6.536,6.536,0,0,0,.594.324c.174.087.338.169.478.256.019.01.039.024.058.034a1.047,1.047,0,0,0,.478.121,1.033,1.033,0,0,0,.734-.333L15.7,36.569a1.093,1.093,0,0,1,.73-.362.983.983,0,0,1,.7.353L19.8,39.231a.955.955,0,0,1,0,1.512" transform="translate(0.001 -21.424)" fill="#fff"/>
      <path id="Path_1379" data-name="Path 1379" d="M196.216,70.908a6.218,6.218,0,0,1,5.063,5.063.648.648,0,0,0,.643.541.888.888,0,0,0,.111-.01.653.653,0,0,0,.536-.754,7.518,7.518,0,0,0-6.126-6.126.656.656,0,0,0-.754.531.645.645,0,0,0,.527.754" transform="translate(-183.862 -65.41)" fill="#fff"/>
      <path id="Path_1380" data-name="Path 1380" d="M209.591,10.971A12.379,12.379,0,0,0,199.5.885a.651.651,0,1,0-.213,1.285,11.057,11.057,0,0,1,9.015,9.015.648.648,0,0,0,.642.541.838.838,0,0,0,.111-.01.64.64,0,0,0,.531-.744" transform="translate(-186.746 -0.822)" fill="#fff"/>
    </g>
  </g>
</svg>
