<?xml version="1.0" encoding="utf-8"?>
<!-- Generator: Adobe Illustrator 26.2.1, SVG Export Plug-In . SVG Version: 6.00 Build 0)  -->
<svg version="1.1" id="圖層_1" xmlns="http://www.w3.org/2000/svg" xmlns:xlink="http://www.w3.org/1999/xlink" x="0px" y="0px"
	 viewBox="0 0 87.9 83.1" style="enable-background:new 0 0 87.9 83.1;" xml:space="preserve">
<style type="text/css">
	.st0{fill:none;stroke:#7A7A7A;stroke-width:3;stroke-linecap:round;stroke-linejoin:round;}
</style>
<g id="圖層_2_00000000203858493348378910000000375546538604442554_">
	<g id="图层_2">
		<g id="图层_217">
			<path class="st0" d="M31.8,57.2c-0.5,0.4-0.9,1-1.1,1.6l-1,2.8c-1,3-1.5,6.2-1.5,9.3v7.1c0,1.9-1.6,3.5-3.5,3.5l0,0
				c-1.2,0-2.4-0.7-3-1.8l-2.5-4.2c-4.1-7-6.5-14.9-7.2-23c-0.3-3.5-1.4-6.9-3.1-9.9l-3.7-6.4C2.8,32,1.5,27.3,1.5,22.5l0,0
				c-0.1-4.6,1-9.1,3.2-13.1c2.9-4.9,8.3-7.9,14-7.9l0,0c0.9,0,1.9,0.1,2.8,0.2L34.4,4"/>
		</g>
		<g id="图层_216">
			<path class="st0" d="M34.4,4l12.8-2.2c0.9-0.2,1.9-0.3,2.8-0.2l0,0c5.7-0.1,11,2.9,13.9,7.9c2.2,4,3.3,8.5,3.2,13.1l0,0"/>
		</g>
		<g id="图层_215">
			<path class="st0" d="M31.3,11.5l-7.8-1.7c-3.4-0.8-7,0.4-9.3,3c-0.2,0.2-0.3,0.4-0.5,0.6c-1.3,1.8-2,4.1-1.9,6.3"/>
		</g>
		<g id="图层_214">
			<path class="st0" d="M86.4,63.3v-8.7h-7.6c-1.6,0-3-0.8-3.8-2.1c-5.9-9.6-9-11.1-11.6-12.5c-1.5-0.8-2.8-2.9-3.6-4.6
				c-0.5-1.2-0.9-2.4-1.1-3.7c-0.3-2.5-1.5-3.5-2.5-4c-1-0.4-2-0.3-2.9,0.2c-1.3,0.6-2.3,1.6-3.1,2.7c-2.2,3.7-0.9,9.6,3.8,14.5
				c0.4,0.4,0.6,1,0.6,1.5c0,1.2-1,2.2-2.2,2.2c0,0,0,0,0,0H41.9c-2.5,0.3-4.5,2.2-5,4.7c-0.3,2,0.5,4,2,5.4
				c-1.1,0.8-1.8,2.1-1.9,3.5c0,1.6,0.9,3.1,2.4,3.9c-1.1,1.2-1.4,3-0.9,4.5c0.6,1.4,1.7,2.5,3.2,2.9c-0.9,1-1.2,2.4-0.9,3.7
				c0.5,1.6,1.9,2.8,3.6,2.9h30.4c0.8,0,1.7-0.2,2.4-0.5c0.8-0.3,1.5-0.8,2.1-1.3h7.1V75"/>
		</g>
		<g id="图层_213">
			<line class="st0" x1="38.7" y1="58.8" x2="42.7" y2="58.8"/>
		</g>
		<g id="图层_212">
			<line class="st0" x1="39.2" y1="66" x2="43.6" y2="66"/>
		</g>
		<g id="图层_210">
			<line class="st0" x1="78.8" y1="54.6" x2="78.8" y2="63.3"/>
		</g>
	</g>
</g>
</svg>
