<?xml version="1.0" encoding="utf-8"?>
<!-- Generator: Adobe Illustrator 26.2.1, SVG Export Plug-In . SVG Version: 6.00 Build 0)  -->
<svg version="1.1" id="圖層_1" xmlns="http://www.w3.org/2000/svg" xmlns:xlink="http://www.w3.org/1999/xlink" x="0px" y="0px"
	 viewBox="0 0 17.8 17.8" style="enable-background:new 0 0 17.8 17.8;" xml:space="preserve">
<style type="text/css">
	.st0{fill-rule:evenodd;clip-rule:evenodd;fill:#55B8E7;}
</style>
<path id="Path_1739" class="st0" d="M2.1,0.6c0.8-0.8,2-0.8,2.8,0C4.9,0.6,5,0.7,5,0.8l2,2.6C7.4,3.8,7.5,4.4,7.4,5L6.8,7.4
	C6.7,7.7,6.8,8,7,8.2l2.7,2.7c0.2,0.2,0.5,0.3,0.7,0.2l2.4-0.6c0.6-0.1,1.2,0,1.7,0.4l2.6,2c0.8,0.7,1,1.9,0.3,2.7
	c0,0.1-0.1,0.1-0.2,0.2l-1.2,1.2c-0.8,0.9-2.1,1.2-3.2,0.8c-2.9-1-5.6-2.7-7.8-4.9c-2.2-2.2-3.9-4.9-4.9-7.8
	c-0.4-1.1-0.1-2.4,0.8-3.2L2.1,0.6L2.1,0.6z"/>
</svg>
