<?xml version="1.0" encoding="utf-8"?>
<!-- Generator: Adobe Illustrator 16.0.0, SVG Export Plug-In . SVG Version: 6.00 Build 0)  -->
<!DOCTYPE svg PUBLIC "-//W3C//DTD SVG 1.1//EN" "http://www.w3.org/Graphics/SVG/1.1/DTD/svg11.dtd">
<svg version="1.1" id="圖層_1" xmlns="http://www.w3.org/2000/svg" xmlns:xlink="http://www.w3.org/1999/xlink" x="0px" y="0px"
	 width="473.277px" height="200.411px" viewBox="0 0 473.277 200.411" enable-background="new 0 0 473.277 200.411"
	 xml:space="preserve">
<g>
	<g>
		<g>
			<path fill="#312725" d="M209.631,57.019c0,0.314-0.063,0.628-0.126,0.942c-3.392,11.116-8.855,20.851-16.015,28.325
				c-0.502,0.565-1.256,0.816-1.947,0.816c-0.69,0-1.444-0.251-2.01-0.816c-0.565-0.565-0.879-1.256-0.879-2.01
				c0-0.628,0.251-1.256,0.753-1.759c6.343-6.155,12.059-15.639,14.948-26.315c0.313-1.13,1.193-1.696,2.323-1.696
				c0.313,0,0.628,0.063,1.005,0.125C208.877,54.947,209.631,55.889,209.631,57.019z M244.048,42.637
				c1.193,0,1.884,1.193,1.884,2.45c0,1.381-0.69,2.386-1.884,2.386h-53.196c-1.193,0-1.822-1.005-1.822-2.386
				c0-1.256,0.628-2.45,1.822-2.45h23.552v-10.3c0-1.319,0.941-1.947,2.512-1.947c1.695,0,2.638,0.628,2.638,1.947v10.3H244.048z
				 M227.153,54.507c1.067,0,1.946,0.565,2.261,1.57c3.203,9.986,9.232,19.595,15.89,26.441c0.44,0.439,0.628,1.005,0.628,1.57
				c0,0.753-0.377,1.57-1.004,2.198c-0.629,0.628-1.257,0.879-1.947,0.879c-0.629,0-1.319-0.314-1.885-0.879
				c-7.223-7.411-13.252-17.962-16.58-28.64c-0.063-0.314-0.126-0.565-0.126-0.816c0-1.005,0.628-1.821,1.759-2.198
				C226.525,54.57,226.84,54.507,227.153,54.507z"/>
			<path fill="#312725" d="M271.611,40.69c2.576,0,4.02,1.633,4.02,3.643c0,0.754-0.188,1.507-0.502,2.261
				c-1.695,3.518-4.082,7.16-6.783,10.426c1.822,1.884,3.769,3.455,5.275,4.459c0.754,0.502,1.131,1.193,1.131,1.947
				c0,0.377-0.125,0.816-0.377,1.193c-0.439,0.753-1.131,1.067-1.758,1.067c-0.503,0-0.942-0.188-1.383-0.502
				c-1.318-1.005-2.763-2.387-4.145-3.832c0.188,2.575,0.377,5.401,0.377,8.416v17.02c0,1.131-0.942,1.759-2.324,1.759
				c-1.444,0-2.387-0.691-2.387-1.759V70.71c0-2.449,0.126-5.212,0.377-7.976c-1.947,2.135-4.334,4.145-6.217,5.59
				c-0.503,0.376-1.068,0.565-1.633,0.565c-0.691,0-1.383-0.376-1.885-1.067c-0.314-0.502-0.502-1.005-0.502-1.507
				c0-0.691,0.313-1.319,1.004-1.759c6.908-4.71,13.566-12.184,16.33-18.088c0.125-0.251,0.188-0.502,0.188-0.691
				c0-0.439-0.313-0.753-0.941-0.753h-13.001c-1.13,0-1.759-0.879-1.759-2.198c0-1.256,0.629-2.135,1.759-2.135h6.343v-8.918
				c0-1.13,0.943-1.758,2.324-1.758c1.445,0,2.387,0.628,2.387,1.758v8.918H271.611z M277.139,36.419
				c-1.131,0-1.695-0.942-1.695-2.135s0.564-2.073,1.695-2.073H310.3c1.13,0,1.696,0.879,1.696,2.073
				c0,1.13-0.566,2.135-1.696,2.135H277.139z M305.527,60.097c3.705,0,5.338,1.382,5.338,4.836v16.832
				c0,3.518-1.633,4.962-5.338,4.962h-24.181c-3.706,0-5.276-1.444-5.276-4.962V64.933c0-3.454,1.57-4.836,5.276-4.836H305.527z
				 M283.733,55.952c-3.392,0-4.962-1.319-4.962-4.522v-5.967c0-3.266,1.57-4.584,5.024-4.584h19.093c3.58,0,5.15,1.319,5.15,4.584
				v5.967c0,3.203-1.57,4.522-5.15,4.522H283.733z M291.019,63.991h-8.667c-1.193,0-1.821,0.314-1.821,1.633v5.527h10.488V63.991z
				 M291.019,74.918H280.53v6.092c0,1.382,0.628,1.696,1.821,1.696h8.667V74.918z M285.053,44.835c-1.193,0-1.76,0.377-1.76,1.444
				v4.333c0,1.068,0.566,1.382,1.696,1.382h16.644c1.256,0,1.821-0.314,1.821-1.382v-4.333c0-1.067-0.565-1.444-1.821-1.444H285.053
				z M306.344,65.624c0-1.319-0.566-1.633-1.76-1.633h-9.295v7.16h11.055V65.624z M304.584,82.707c1.193,0,1.76-0.314,1.76-1.696
				v-6.092h-11.055v7.788H304.584z"/>
			<path fill="#312725" d="M337.486,65.247c-3.705,0-5.275-1.256-5.275-4.647v-6.281c0-3.391,1.57-4.647,5.275-4.647h23.804
				c3.644,0,5.276,1.256,5.276,4.647v6.281c0,3.392-1.633,4.647-5.276,4.647h-10.111v5.841h19.721c1.067,0,1.696,0.879,1.696,2.073
				c0,1.256-0.629,2.198-1.696,2.198h-19.721v6.971h24.683c1.131,0,1.82,0.816,1.82,2.073c0,1.319-0.689,2.198-1.82,2.198h-52.945
				c-1.131,0-1.821-0.879-1.821-2.198c0-1.256,0.69-2.073,1.821-2.073h23.678v-6.971h-18.904c-1.068,0-1.695-0.879-1.695-2.135
				c0-1.256,0.627-2.136,1.695-2.136h18.904v-5.841H337.486z M358.777,40.627c2.073-2.575,4.146-6.092,5.15-8.29
				c0.377-0.754,1.006-1.131,1.885-1.131c0.377,0,0.816,0.063,1.256,0.251c1.005,0.377,1.57,1.13,1.57,1.884
				c0,0.251-0.063,0.565-0.252,0.816c-1.004,1.821-2.951,4.647-4.521,6.469h7.098c3.83,0,5.525,1.445,5.525,4.899v7.851
				c0,1.193-0.816,1.884-2.26,1.884c-1.445,0-2.262-0.691-2.262-1.884v-6.971c0-1.319-0.628-1.633-1.884-1.633h-41.389
				c-1.319,0-1.884,0.314-1.884,1.633v6.971c0,1.13-0.88,1.884-2.262,1.884c-1.444,0-2.261-0.754-2.261-1.884v-7.851
				c0-3.454,1.696-4.899,5.526-4.899h7.223c-1.443-2.01-3.266-4.271-4.836-6.092c-0.251-0.314-0.377-0.69-0.377-1.067
				c0-0.628,0.377-1.256,1.257-1.696c0.439-0.188,0.942-0.314,1.319-0.314c0.753,0,1.381,0.314,1.82,0.879
				c1.759,1.947,4.396,5.401,5.904,8.29h6.594v-8.73c0-1.067,0.816-1.758,2.262-1.758c1.444,0,2.324,0.691,2.324,1.758v8.73H358.777
				z M360.223,61.479c1.256,0,1.821-0.314,1.821-1.507v-4.962c0-1.13-0.565-1.444-1.821-1.444h-21.668
				c-1.256,0-1.821,0.314-1.821,1.444v4.962c0,1.193,0.565,1.507,1.821,1.507H360.223z"/>
			<path fill="#312725" d="M197.321,149.161c0-1.885,0.188-4.208,0.314-6.155c-2.073,2.323-4.459,4.585-6.532,6.155
				c-0.502,0.439-1.068,0.628-1.57,0.628c-0.69,0-1.319-0.313-1.758-1.005c-0.377-0.502-0.565-1.005-0.565-1.57
				c0-0.691,0.314-1.382,1.005-1.821c6.155-4.02,13.942-12.436,16.706-18.465c0.126-0.313,0.188-0.628,0.188-0.816
				c0-0.439-0.313-0.628-0.942-0.628h-13.502c-1.131,0-1.759-1.005-1.759-2.262c0-1.256,0.628-2.072,1.759-2.072h6.783v-8.918
				c0-1.131,0.942-1.758,2.387-1.758c1.444,0,2.387,0.627,2.387,1.758v8.918h4.082c2.45,0,3.894,1.319,3.894,3.393
				c0,0.753-0.188,1.633-0.564,2.512c-1.57,3.454-3.895,6.846-6.469,9.86c2.387,2.7,5.087,5.087,7.473,6.657
				c0.629,0.439,0.88,1.068,0.88,1.758c0,0.503-0.126,1.006-0.439,1.383c-0.503,0.69-1.13,1.067-1.759,1.067
				c-0.439,0-0.816-0.126-1.193-0.44c-2.197-1.758-4.521-3.893-6.406-6.217c0.189,2.197,0.314,4.521,0.314,6.72v19.219
				c0,1.13-0.879,1.759-2.324,1.759c-1.382,0-2.387-0.629-2.387-1.759V149.161z M225.206,148.47
				c-0.503,9.107-5.401,16.078-14.696,19.847c-0.377,0.188-0.754,0.251-1.068,0.251c-0.941,0-1.695-0.502-2.072-1.507
				c-0.188-0.313-0.251-0.69-0.251-1.067c0-0.88,0.44-1.633,1.382-2.01c7.411-3.016,11.494-7.789,11.996-15.514h-1.885
				c-4.082,0-5.275-1.381-5.275-4.836v-26.001c0-3.58,1.695-5.024,5.338-5.024h19.533c3.58,0,5.338,1.444,5.338,4.961v26.064
				c0,3.392-1.381,4.836-5.275,4.836h-3.391v13.378c0,1.633,0.376,1.946,3.328,1.946c2.701,0,3.705-0.377,4.145-1.318
				c0.566-1.131,0.816-3.266,0.942-5.401c0.063-1.13,0.754-1.821,2.01-1.821c0.063,0,0.126,0,0.188,0
				c1.318,0.063,2.072,0.816,2.072,1.947c0,0.063,0,0.063,0,0.125c-0.125,3.203-0.564,6.281-1.633,8.039
				c-1.131,1.885-3.014,2.701-8.039,2.701c-5.967,0-7.6-0.879-7.6-4.773V148.47H225.206z M238.898,123.411v-5.15
				c0-1.256-0.503-1.57-1.76-1.57H219.68c-1.319,0-1.759,0.314-1.759,1.57v5.15H238.898z M238.898,133.711v-6.406h-20.978v6.406
				H238.898z M217.921,142.88c0,1.256,0.439,1.633,1.759,1.633h17.459c1.257,0,1.76-0.377,1.76-1.633v-5.275h-20.978V142.88z"/>
			<path fill="#312725" d="M275.381,121.275c1.13,0,1.695,0.88,1.695,2.136s-0.565,2.135-1.759,2.135H256.35
				c-1.13,0-1.695-0.879-1.695-2.135s0.565-2.136,1.695-2.136H275.381z M258.172,116.565c-1.006,0-1.633-0.816-1.633-2.072
				c0-1.257,0.627-2.073,1.633-2.073h15.639c1.004,0,1.633,0.816,1.633,2.073c0,1.256-0.629,2.072-1.633,2.072H258.172z
				 M258.172,134.339c-1.068,0-1.633-0.941-1.633-2.072s0.564-2.072,1.633-2.072h15.199c1.004,0,1.569,0.941,1.569,2.072
				s-0.565,2.072-1.569,2.072H258.172z M258.234,143.069c-1.068,0-1.633-0.943-1.633-2.073s0.564-2.072,1.633-2.072h15.073
				c1.067,0,1.569,0.942,1.569,2.072s-0.502,2.073-1.569,2.073H258.234z M274.94,162.287c0,3.329-1.569,4.71-4.962,4.71h-8.353
				c-3.267,0-4.837-1.381-4.837-4.71v-9.985c0-3.267,1.57-4.522,4.837-4.522h8.353c3.393,0,4.962,1.256,4.962,4.522V162.287z
				 M261.186,161.659c0,1.131,0.566,1.508,1.696,1.508h5.903c1.131,0,1.759-0.377,1.759-1.508v-8.73c0-1.13-0.628-1.443-1.759-1.443
				h-5.903c-1.13,0-1.696,0.313-1.696,1.443V161.659z M285.492,135.47c0.377-5.967,0.439-11.871,0.502-17.837h-6.28
				c-1.131,0-1.759-0.754-1.759-2.198c0-1.445,0.628-2.198,1.759-2.198h19.47c3.517,0,5.526,1.633,5.526,5.213
				c0,14.948,0.188,23.237,0.628,29.833c0.377,5.715,1.256,9.922,2.136,12.309c0.251,0.629,0.503,0.943,0.69,0.943
				c0.252,0,0.439-0.314,0.629-0.816c0.502-1.822,0.816-4.02,1.004-6.219c0.126-1.004,0.816-1.507,1.822-1.507
				c0.125,0,0.251,0,0.377,0c1.381,0.188,1.758,0.879,1.758,1.821c0,0.063,0,0.125,0,0.188c-0.314,4.962-1.508,9.106-2.574,10.991
				c-0.691,1.256-1.822,1.884-2.953,1.884c-1.066,0-2.135-0.565-3.014-1.696c-2.324-2.951-3.769-8.666-4.334-15.072
				c-0.628-7.726-0.816-16.33-0.879-31.717c0-1.383-0.754-1.759-2.01-1.759h-7.349c-0.063,5.966-0.126,11.87-0.439,17.837h6.469
				c1.131,0,1.696,0.879,1.696,2.135c0,1.319-0.565,2.198-1.759,2.198h-6.783c-0.376,4.083-0.942,7.474-1.759,10.614
				c-1.57,6.281-4.459,12.436-8.353,17.271c-0.503,0.564-1.131,0.879-1.821,0.879c-0.565,0-1.193-0.188-1.695-0.628
				c-0.629-0.439-0.943-1.13-0.943-1.821c0-0.628,0.189-1.193,0.691-1.695c3.518-4.02,6.218-9.547,7.6-15.137
				c0.754-2.7,1.256-5.777,1.633-9.483h-5.967c-1.131,0-1.695-0.879-1.695-2.198c0-1.256,0.564-2.135,1.695-2.135H285.492z"/>
			<path fill="#312725" d="M328.066,166.81c0,1.256-1.068,1.884-2.512,1.884c-1.383,0-2.387-0.628-2.387-1.884v-49.742
				c0-3.328,1.57-4.836,5.149-4.836h13.063c3.58,0,5.15,1.318,5.15,4.585v13.942c0,3.266-1.57,4.585-5.15,4.585h-13.314V166.81z
				 M342.009,117.821c0-1.193-0.69-1.695-1.821-1.695h-10.363c-1.193,0-1.758,0.502-1.758,1.695v3.957h13.942V117.821z
				 M340.188,131.513c1.131,0,1.821-0.439,1.821-1.633v-4.334h-13.942v5.967H340.188z M356.768,135.407
				c-3.579,0-5.149-1.32-5.149-4.586v-13.942c0-3.266,1.57-4.585,5.149-4.585h13.629c3.58,0,5.15,1.508,5.15,4.773v44.215
				c0,4.836-2.261,6.531-7.662,6.531c-2.512,0-5.15-0.188-7.16-0.627c-1.318-0.252-1.947-1.006-1.947-2.262
				c0-0.188,0-0.377,0.063-0.564c0.126-1.257,1.005-2.01,2.136-2.01c0.188,0,0.377,0,0.627,0.063c1.57,0.377,3.77,0.69,5.716,0.69
				c2.764,0,3.454-0.439,3.454-3.015v-24.682H356.768z M370.773,117.821c0-1.131-0.502-1.633-1.695-1.633h-11.117
				c-1.13,0-1.884,0.502-1.884,1.633v4.02h14.696V117.821z M370.773,125.608h-14.696v4.334c0,1.131,0.754,1.633,1.884,1.633h12.813
				V125.608z"/>
			<path fill="#312725" d="M405.75,121.149c1.13,0,1.758,0.816,1.758,2.072c0,1.257-0.628,2.199-1.758,2.199h-18.34
				c-1.068,0-1.695-0.942-1.695-2.199c0-1.256,0.627-2.072,1.695-2.072H405.75z M406.503,162.601c0,3.203-1.57,4.522-4.836,4.522
				h-8.981c-3.328,0-4.836-1.319-4.836-4.522v-9.859c0-3.203,1.508-4.522,4.836-4.522h8.981c3.266,0,4.836,1.319,4.836,4.522
				V162.601z M389.545,116.188c-1.066,0-1.633-0.942-1.633-2.136s0.566-2.01,1.633-2.01h15.262c1.068,0,1.633,0.816,1.633,2.01
				s-0.564,2.136-1.633,2.136H389.545z M389.482,143.509c-1.004,0-1.57-1.006-1.57-2.072c0-1.131,0.566-2.073,1.57-2.073h15.388
				c1.067,0,1.569,0.88,1.569,2.01s-0.502,2.136-1.569,2.136H389.482z M389.608,134.401c-1.005,0-1.57-1.004-1.57-2.072
				c0-1.131,0.565-2.072,1.57-2.072h15.262c1.067,0,1.569,0.941,1.569,2.072c0,1.068-0.502,2.072-1.569,2.072H389.608z
				 M400.348,163.229c1.131,0,1.759-0.377,1.759-1.508v-8.227c0-1.131-0.628-1.508-1.759-1.508h-6.406
				c-1.13,0-1.695,0.377-1.695,1.508v8.227c0,1.131,0.565,1.508,1.695,1.508H400.348z M444.249,126.739
				c0.69,0.439,1.067,1.193,1.067,1.947c0,0.502-0.125,1.005-0.377,1.381c-0.564,0.943-1.256,1.383-2.01,1.383
				c-0.502,0-1.067-0.189-1.57-0.565c-6.406-4.083-12.059-9.609-15.826-14.822c-0.314-0.377-0.565-0.565-0.816-0.565
				c-0.252,0-0.503,0.252-0.754,0.629c-3.392,5.213-8.102,9.922-13.691,13.879c-0.377,0.314-0.816,0.439-1.256,0.439
				c-0.816,0-1.57-0.439-2.073-1.256c-0.313-0.439-0.439-0.941-0.439-1.444c0-0.753,0.377-1.507,1.067-1.946
				c5.275-3.455,9.924-8.229,13.44-13.441c0.817-1.193,2.198-1.82,3.644-1.82c1.381,0,2.889,0.627,3.83,1.884
				C432.63,117.821,438.094,123.097,444.249,126.739z M429.553,128.372c0,0.503-0.189,1.006-0.629,1.382
				c-4.898,4.837-9.985,8.29-15.952,11.054c-0.313,0.188-0.69,0.252-1.005,0.252c-0.879,0-1.695-0.503-2.135-1.57
				c-0.189-0.377-0.252-0.754-0.252-1.131c0-0.879,0.439-1.57,1.319-2.01c5.275-2.387,10.362-5.652,14.444-9.924
				c0.377-0.439,0.943-0.627,1.445-0.627c0.628,0,1.318,0.25,1.821,0.754C429.238,127.054,429.553,127.744,429.553,128.372z
				 M442.93,147.653c0,0.502-0.188,0.942-0.564,1.445c-8.165,9.546-17.963,15.639-29.456,19.092
				c-0.313,0.063-0.628,0.126-0.88,0.126c-1.004,0-1.82-0.565-2.197-1.696c-0.126-0.313-0.189-0.627-0.189-0.941
				c0-1.005,0.629-1.821,1.57-2.072c10.929-3.329,20.098-9.107,27.51-17.648c0.502-0.565,1.066-0.816,1.633-0.816
				c0.502,0,1.066,0.251,1.57,0.69C442.553,146.335,442.93,146.963,442.93,147.653z M433.133,135.532
				c0.564,0,1.256,0.251,1.82,0.754c0.503,0.502,0.816,1.131,0.816,1.695c0,0.565-0.25,1.131-0.69,1.633
				c-6.092,6.344-13.251,10.991-21.794,14.32c-0.313,0.125-0.627,0.188-0.941,0.188c-0.941,0-1.695-0.564-2.135-1.633
				c-0.189-0.439-0.252-0.816-0.252-1.193c0-0.879,0.502-1.633,1.445-2.01c8.102-3.077,14.821-7.348,20.475-13.252
				C432.19,135.721,432.63,135.532,433.133,135.532z"/>
		</g>
	</g>
	<g>
		<g>
			<g>
				<path fill="#312725" d="M89.751,28.1c-38.49,0-69.811,31.314-69.811,69.813c0,38.491,31.321,69.814,69.811,69.814
					c38.493,0,69.812-31.323,69.812-69.814C159.563,59.414,128.245,28.1,89.751,28.1z M92.448,164.081v-35.276
					c4.204,8.427,12.908,14.218,22.963,14.218c14.168,0,25.657-11.486,25.657-25.666c0-4.676-1.256-9.053-3.439-12.824
					c-3.963-8.052-12.655-12.833-22.218-12.833c-13.401,0-24.303,10.9-24.303,24.301c0,0.75-0.603,1.356-1.356,1.356
					c-0.75,0-1.356-0.606-1.356-1.356c0-13.401-10.901-24.301-24.302-24.301c-9.561,0-18.252,4.781-22.218,12.833
					c-2.182,3.771-3.437,8.148-3.437,12.824c0,14.18,11.486,25.666,25.655,25.666c10.055,0,18.759-5.791,22.965-14.218v35.276
					c-35.275-1.414-63.539-30.554-63.539-66.167c0-36.518,29.712-66.235,66.232-66.235c36.519,0,66.233,29.717,66.233,66.235
					C155.984,133.527,127.72,162.667,92.448,164.081z"/>
				<path fill="#312725" d="M89.751,81.896c3.541-10.727,13.629-18.5,25.515-18.567c-1.351-12.9-12.258-22.954-25.515-22.954
					c-13.256,0-24.163,10.053-25.515,22.954C76.122,63.396,86.212,71.169,89.751,81.896z"/>
				<g>
					<path fill="#312725" d="M132.477,72.574c-1.017-0.914-2.104-1.741-3.259-2.482v22.703c1.145,0.684,2.232,1.453,3.259,2.299
						V72.574z"/>
					<path fill="#312725" d="M128.15,69.448c-1.041-0.597-2.128-1.125-3.256-1.578v22.848c1.12,0.423,2.208,0.923,3.256,1.481
						V69.448z"/>
					<path fill="#312725" d="M90.283,106.139c0.844-2.135,1.931-4.146,3.262-5.974V79.809c-1.544,3.194-2.437,6.753-2.437,10.534
						c0,0.558-0.339,1.039-0.825,1.25V106.139z"/>
					<path fill="#312725" d="M47.026,95.095c1.027-0.837,2.114-1.616,3.257-2.299V70.102c-1.154,0.731-2.239,1.568-3.257,2.473
						V95.095z"/>
					<path fill="#312725" d="M54.609,67.87c-1.126,0.452-2.215,0.981-3.257,1.578v22.751c1.049-0.558,2.136-1.058,3.257-1.481V67.87
						z"/>
					<path fill="#312725" d="M85.959,100.165c1.328,1.828,2.417,3.839,3.259,5.965V91.593c-0.483-0.212-0.823-0.692-0.823-1.25
						c0-3.781-0.892-7.34-2.436-10.534V100.165z"/>
					<path fill="#312725" d="M123.829,67.476c-1.065-0.366-2.143-0.683-3.261-0.914v22.925c1.114,0.211,2.196,0.5,3.261,0.856
						V67.476z"/>
					<path fill="#312725" d="M106.522,67.745c-1.13,0.452-2.217,0.972-3.259,1.578v22.559c1.051-0.529,2.141-0.991,3.259-1.385
						V67.745z"/>
					<path fill="#312725" d="M102.195,69.977c-1.161,0.751-2.247,1.617-3.258,2.549v22.107c1.029-0.808,2.121-1.53,3.258-2.165
						V69.977z"/>
					<path fill="#312725" d="M110.849,66.484c-1.116,0.212-2.203,0.51-3.259,0.866v22.81c1.063-0.327,2.147-0.597,3.259-0.779
						V66.484z"/>
					<path fill="#312725" d="M119.5,66.388c-1.065-0.163-2.153-0.269-3.259-0.308v22.925c1.104,0.039,2.191,0.135,3.259,0.298
						V66.388z"/>
					<path fill="#312725" d="M115.176,66.052c-1.107,0.009-2.191,0.115-3.262,0.269v22.906c1.07-0.134,2.157-0.221,3.262-0.23
						V66.052z"/>
					<path fill="#312725" d="M71.913,67.351c-1.055-0.356-2.143-0.654-3.258-0.866v22.896c1.111,0.183,2.196,0.452,3.258,0.779
						V67.351z"/>
					<path fill="#312725" d="M97.869,73.565c-1.239,1.299-2.326,2.732-3.257,4.271v20.972c0.993-1.202,2.078-2.318,3.257-3.338
						V73.565z"/>
					<path fill="#312725" d="M45.958,73.546c-1.217,1.212-2.306,2.559-3.259,4.002V99.53c0.979-1.27,2.076-2.443,3.259-3.521V73.546
						z"/>
					<path fill="#312725" d="M84.891,77.836c-0.931-1.54-2.018-2.973-3.256-4.271V95.47c1.178,1.02,2.265,2.136,3.256,3.338V77.836z
						"/>
					<path fill="#312725" d="M137.87,79.299v21.723c0.298,0.442,0.586,0.894,0.856,1.356c1.496-3.252,2.343-6.859,2.343-10.679
						C141.068,87.197,139.904,82.974,137.87,79.299z"/>
					<path fill="#312725" d="M136.804,77.538c-0.953-1.433-2.042-2.78-3.261-3.992v22.463c1.186,1.077,2.279,2.25,3.261,3.521
						V77.538z"/>
					<path fill="#312725" d="M80.564,72.526c-1.01-0.942-2.095-1.798-3.256-2.549v22.492c1.14,0.635,2.227,1.356,3.256,2.165V72.526
						z"/>
					<path fill="#312725" d="M67.589,66.321c-1.07-0.153-2.155-0.259-3.261-0.269v22.944c1.104,0.009,2.191,0.096,3.261,0.23V66.321
						z"/>
					<path fill="#312725" d="M41.632,79.299c-2.032,3.685-3.194,7.908-3.194,12.4c0,3.819,0.846,7.427,2.337,10.679
						c0.271-0.462,0.561-0.915,0.856-1.356V79.299z"/>
					<path fill="#312725" d="M63.263,66.081c-1.106,0.039-2.193,0.145-3.259,0.308v22.916c1.068-0.163,2.155-0.26,3.259-0.298
						V66.081z"/>
					<path fill="#312725" d="M58.936,66.562c-1.119,0.23-2.198,0.548-3.261,0.914v22.867c1.063-0.356,2.15-0.645,3.261-0.856V66.562
						z"/>
					<path fill="#312725" d="M76.238,69.323c-1.039-0.606-2.126-1.136-3.256-1.578v22.751c1.121,0.395,2.208,0.856,3.256,1.385
						V69.323z"/>
				</g>
			</g>
		</g>
	</g>
</g>
</svg>
